<svg id="Capa_1" enable-background="new 0 0 512 512" height="512" viewBox="0 0 512 512" width="512" xmlns="http://www.w3.org/2000/svg"><g><g clip-rule="evenodd" fill-rule="evenodd"><path d="m324.019 0 4.988 49.012h-146.014l5.017-49.012z" fill="#ad5c3c"/><path d="m188.01 125.265h-49.012v-68.26c0-5.442 2.183-10.176 5.669-13.663l43.343-43.342z" fill="#db805b"/><path d="m373.001 125.265h-48.982v-125.265l43.342 43.342c3.826 3.855 5.641 8.532 5.641 13.663v68.26z" fill="#db805b"/><path d="m423.997 128.27v348.382c0 19.446-15.902 35.349-35.348 35.349h-265.27c-19.446 0-35.377-15.902-35.377-35.349v-348.382c0-4.394 3.6-7.994 7.994-7.994h320.007c4.394 0 7.994 3.6 7.994 7.994z" fill="#ffeed5"/><path d="m423.997 128.27v348.382c0 19.446-15.902 35.349-35.348 35.349h-265.27c-15.845 0-29.367-10.545-33.817-25.002h274.453c19.249 0 34.982-15.732 34.982-34.979v-331.744h17.008c4.392 0 7.992 3.6 7.992 7.994z" fill="#ffe6c0"/><path d="m256.014 209.681c-38.58-17.83-81.383-14.797-93.289-2.891-15.194 15.194-15.96 80.732 22.706 123.563z" fill="#6fd7a3"/><path d="m349.304 206.79c-15.704-15.705-85.069-15.988-127.703 26.646-42.605 42.605-42.322 111.999-26.617 127.674 15.676 15.705 85.068 15.988 127.673-26.646 42.634-42.605 42.35-111.97 26.647-127.674z" fill="#9be69d"/><path d="m349.304 206.79c-3.431-3.43-9.439-6.123-17.207-7.795 5.953 27.609-1.162 77.188-34.44 110.496-33.279 33.279-82.887 40.394-110.468 34.441 1.644 7.739 4.366 13.748 7.796 17.178 15.676 15.705 85.068 15.988 127.673-26.646 42.633-42.605 42.349-111.97 26.646-127.674z" fill="#6fd7a3"/></g><path d="m317.356 228.135c2.92-2.919 7.683-2.919 10.602 0 2.92 2.92 2.92 7.683 0 10.602l-11.905 11.934 12.02 2.154c4.054.737 6.774 4.621 6.037 8.674-.736 4.082-4.62 6.775-8.674 6.038l-22.252-4.025-26.222 26.221 29.736 5.386c4.054.708 6.775 4.592 6.038 8.645-.737 4.082-4.62 6.775-8.674 6.038l-39.941-7.228-23.357 23.358 24.605 4.45c4.053.737 6.774 4.621 6.037 8.674-.737 4.082-4.62 6.775-8.674 6.038l-34.838-6.293-27.609 27.61c-2.92 2.948-7.682 2.948-10.602 0-2.948-2.919-2.948-7.682 0-10.602l27.61-27.609-6.01-33.194c-.708-4.054 1.984-7.937 6.038-8.674s7.937 1.984 8.674 6.038l4.167 22.96 23.358-23.357-7.313-40.281c-.708-4.054 1.984-7.937 6.038-8.674 4.082-.709 7.965 1.984 8.674 6.038l5.443 30.076 26.22-26.221-4.025-22.253c-.736-4.054 1.956-7.937 6.038-8.674 4.055-.737 7.938 1.984 8.675 6.038l2.154 12.02z" fill="#0bb494"/><path d="m189.994 430.446c-4.139 0-7.483-3.345-7.483-7.483s3.345-7.512 7.483-7.512h132.012c4.139 0 7.512 3.373 7.512 7.512s-3.373 7.483-7.512 7.483zm37.021 30.019c-4.139 0-7.512-3.373-7.512-7.512s3.373-7.512 7.512-7.512h57.998c4.139 0 7.483 3.373 7.483 7.512s-3.345 7.512-7.483 7.512z" fill="#005e80"/></g></svg>